<svg t="1744099261329" class="icon" viewBox="0 0 1024 1024" version="1.1" xmlns="http://www.w3.org/2000/svg" p-id="4570" width="20" height="20"><path d="M839.936 363.008H227.52a76.288 76.288 0 0 0-73.408 75.776v77.824h759.488V438.784a76.288 76.288 0 0 0-73.6-75.776zM597.888 147.52a80.64 80.64 0 0 0-77.824-83.2 78.848 78.848 0 0 0-75.776 81.92v191.168h153.6V147.52zM151.552 803.52c2.432 28.608-5.76 57.088-23.04 80h76.8a77.632 77.632 0 0 0 71.872-73.728v-157.952a20.928 20.928 0 1 1 41.792 0v160c-2.304 26.112-12.16 51.008-28.288 71.68h162.112c42.688-0.64 72.896-37.248 73.472-80v-124.16a20.928 20.928 0 1 1 41.792 0v124.16c-0.96 29.184-11.52 57.344-29.952 80h136.576a78.336 78.336 0 0 0 73.472-77.888V622.4a20.992 20.992 0 1 1 41.856 0v183.232c0 28.288-9.6 55.68-27.2 77.888h77.44a76.288 76.288 0 0 0 73.344-76.032V559.36H154.112l-2.56 244.224z" fill="#1474F6" p-id="4571"></path></svg>